<?xml version="1.0" standalone="no"?>
<!DOCTYPE svg PUBLIC "-//W3C//DTD SVG 1.1//EN"
	"http://www.w3.org/Graphics/SVG/1.1/DTD/svg11.dtd">
<svg xmlns="http://www.w3.org/2000/svg" version="1.1"
	xmlns:xlink="http://www.w3.org/1999/xlink"
	color="black"
	width="797.58px" height="178.53px">
<style type="text/css">
.fill {fill: currentColor}
.stroke {stroke: currentColor; fill: none}
text{white-space:pre; fill:currentColor}
</style>
<title>./cpeb-1w4-3w5-4w3-2w6-7w1-6w1.abc (2044) tune 1</title>
<!-- Creator: abcm2ps-8.14.15 -->
<!-- CreationDate: Jul 12, 2024 12:47 -->
<!-- CommandLine: ./cpeb-1w4-3w5-4w3-2w6-7w1-6w1.abc -O ./cpeb-1w4-3w5-4w3-2w6-7w1-6w1.svg -g -->
<rect width="100%" height="100%" fill="white"/>
<g stroke-width="0.70" transform="scale(0.867)">
<!-- title: 1w4-3w5-4w3-2w6-7w1-6w1 -->
</g>
<g stroke-width="0.70" transform="scale(0.867)" style="font:20.00px Times">
<text x="460.19" y="22.00" text-anchor="middle">1w4-3w5-4w3-2w6-7w1-6w1</text>
</g>
<g stroke-width="0.70" transform="scale(0.867)" style="font:20.00px Times">
<!-- subtitle: $1cpeb::1w4-12w14-22w21-29w33-43w37-51w46-:$0 -->
</g>
<g stroke-width="0.70" transform="scale(0.867)" style="font:bold 14.00px Courier">
<text x="460.19" y="41.80" text-anchor="middle">cpeb::1w4-12w14-22w21-29w33-43w37-51w46-:</text>
</g>
<g stroke-width="0.70" transform="scale(0.867)" style="font:bold 14.00px Courier">
<!-- subtitle: $1Perm. No.: 2044257688$0 -->
<text x="460.19" y="60.80" text-anchor="middle">Perm. No.: 2044257688</text>
</g>
<g stroke-width="0.70" transform="scale(0.607)" style="font:bold 14.00px Courier">
<defs>
<ellipse id="hd" rx="4.1" ry="2.9"
	transform="rotate(-20)" class="fill"/>
</defs>
<use x="136.41" y="121.29" xlink:href="#hd"/>
<path d="M139.91 121.29v-21.00" class="stroke"/>
</g>
<g stroke-width="0.70" transform="scale(0.867)" style="font:bold 15.00px Times">
<text x="103.19" y="87.00">= 90</text>
<path class="stroke" stroke-width="1"
	d="M34.89 183.00v-82.00"/>
<path class="fill"
	d="M29.89 98.00
	c10.5 1 12 -4.5 12 -3.5c0 1 -3.5 5.5 -8.5 5.5
	v84.00
	c5 0 8.5 4.5 8.5 5.5c0 1 -1.5 -4.5 -12 -3.5"/>
<defs>
<g id="rdots" class="fill">
	<circle cx="0" cy="-9" r="1.2"/>
	<circle cx="0" cy="-15" r="1.2"/>
</g>
</defs>
<use x="93.89" y="125.00" xlink:href="#rdots"/>
<path class="stroke" stroke-width="1"
	d="M88.89 125.00v-24.00"/>
<path class="stroke" stroke-width="3"
	d="M84.39 125.00v-24.00"/>
<use x="93.89" y="183.00" xlink:href="#rdots"/>
<path class="stroke" stroke-width="1"
	d="M88.89 183.00v-58.00"/>
<path class="stroke" stroke-width="3"
	d="M84.39 183.00v-58.00"/>
<path class="stroke" stroke-width="1"
	d="M211.19 125.00v-24.00"/>
<path class="stroke" stroke-width="1"
	d="M211.19 183.00v-58.00"/>
<path class="stroke" stroke-width="1"
	d="M348.19 125.00v-24.00"/>
<path class="stroke" stroke-width="1"
	d="M348.19 183.00v-58.00"/>
<path class="stroke" stroke-width="1"
	d="M507.69 125.00v-24.00"/>
<path class="stroke" stroke-width="1"
	d="M507.69 183.00v-58.00"/>
<path class="stroke" stroke-width="1"
	d="M634.69 125.00v-24.00"/>
<path class="stroke" stroke-width="1"
	d="M634.69 183.00v-58.00"/>
<path class="stroke" stroke-width="1"
	d="M761.49 125.00v-24.00"/>
<path class="stroke" stroke-width="1"
	d="M761.49 183.00v-58.00"/>
<path class="stroke" stroke-width="3"
	d="M883.89 125.00v-24.00"/>
<path class="stroke" stroke-width="1"
	d="M878.39 125.00v-24.00"/>
<use x="874.39" y="125.00" xlink:href="#rdots"/>
<path class="stroke" stroke-width="3"
	d="M883.89 183.00v-58.00"/>
<path class="stroke" stroke-width="1"
	d="M878.39 183.00v-58.00"/>
<use x="874.39" y="183.00" xlink:href="#rdots"/>
<path d="m34.89 125.00
	h850.50
	M34.89 119.00
	h850.50
	M34.89 113.00
	h850.50
	M34.89 107.00
	h850.50
	M34.89 101.00
	h850.50
	" class="stroke"/>
<path d="m34.89 183.00
	h850.50
	M34.89 177.00
	h850.50
	M34.89 171.00
	h850.50
	M34.89 165.00
	h850.50
	M34.89 159.00
	h850.50
	" class="stroke"/>
<defs>
<path id="utclef" class="fill" d="m-50 -90
	c-72 -41 -72 -158 52 -188
	150 -10 220 188 90 256
	-114 52 -275 0 -293 -136
	-15 -181 93 -229 220 -334
	88 -87 79 -133 62 -210
	-51 33 -94 105 -89 186
	17 267 36 374 49 574
	6 96 -19 134 -77 135
	-80 1 -126 -93 -61 -133
	85 -41 133 101 31 105
	23 17 92 37 90 -92
	-10 -223 -39 -342 -50 -617
	0 -90 0 -162 96 -232
	56 72 63 230 22 289
	-74 106 -257 168 -255 316
	9 153 148 185 252 133
	86 -65 29 -192 -80 -176
	-71 12 -105 67 -59 124"/>
<use id="tclef" transform="translate(0,6) scale(0.045)"
	xlink:href="#utclef"/>
</defs>
<use x="46.89" y="119.00" xlink:href="#tclef"/>
<g style="font:bold 16px serif"
	transform="translate(65.39,124.50) scale(1.2,1)">
	<text text-anchor="middle">2</text>
	<text y="-12" text-anchor="middle">2</text>
</g>
<use x="107.89" y="104.00" xlink:href="#hd"/>
<path d="M104.39 104.00v21.00" class="stroke"/>
<use x="135.99" y="98.00" xlink:href="#hd"/>
<path d="M132.49 98.00v21.00" class="stroke"/>
<use x="163.99" y="104.00" xlink:href="#hd"/>
<path d="M160.49 104.00v21.00" class="stroke"/>
<use x="192.09" y="110.00" xlink:href="#hd"/>
<path d="M188.59 110.00v21.00" class="stroke"/>
<path class="fill"
	d="M220.79 132.40l18.80 5.90v-3.20l-18.80 -5.90"/>
<use x="224.69" y="104.00" xlink:href="#hd"/>
<path d="M221.19 104.00v27.60" class="stroke"/>
<use x="242.79" y="119.00" xlink:href="#hd"/>
<path d="M239.29 119.00v18.20" class="stroke"/>
<path class="fill"
	d="M258.99 119.30l19.40 2.40v-3.20l-19.40 -2.40"/>
<use x="262.79" y="98.00" xlink:href="#hd"/>
<path d="M259.29 98.00v20.40" class="stroke"/>
<use x="281.59" y="101.00" xlink:href="#hd"/>
<defs>
<path id="usharp" class="fill" d="
	m136 -702
	v890
	h32
	v-890
	m128 840
	h32
	v-888
	h-32
	m-232 286
	v116
	l338 -96
	v-116
	m-338 442
	v116
	l338 -98
	v-114"/>
<use id="sh0" transform="translate(-4,5) scale(0.018)"
	xlink:href="#usharp"/>
</defs>
<use x="272.59" y="101.00" xlink:href="#sh0"/>
<path d="M278.09 101.00v19.60" class="stroke"/>
<defs>
<path id="Hd" class="fill" d="m3 -1.6
	c-1 -1.8 -7 1.4 -6 3.2
	1 1.8 7 -1.4 6 -3.2
	m0.5 -0.3
	c2 3.8 -5 7.6 -7 3.8
	-2 -3.8 5 -7.6 7 -3.8"/>
</defs>
<use x="301.59" y="98.00" xlink:href="#Hd"/>
<path d="M298.09 98.00v21.00" class="stroke"/>
<path class="fill"
	d="M357.79 123.90l18.80 5.40v-3.20l-18.80 -5.40"/>
<use x="361.69" y="98.00" xlink:href="#hd"/>
<path d="M358.19 98.00v25.00" class="stroke"/>
<use x="379.79" y="110.00" xlink:href="#hd"/>
<path d="M376.29 110.00v18.20" class="stroke"/>
<path class="fill"
	d="M395.99 133.70l18.80 -2.30v-3.20l-18.80 2.30"/>
<use x="399.79" y="113.00" xlink:href="#hd"/>
<path d="M396.29 113.00v19.60" class="stroke"/>
<use x="417.89" y="110.00" xlink:href="#hd"/>
<path d="M414.39 110.00v20.40" class="stroke"/>
<use x="437.99" y="101.00" xlink:href="#Hd"/>
<path d="M434.49 101.00v21.00" class="stroke"/>
<use x="521.19" y="101.00" xlink:href="#hd"/>
<path d="M517.69 101.00v21.00" class="stroke"/>
<path class="fill"
	d="M545.39 125.30l18.80 2.30v-3.20l-18.80 -2.30"/>
<use x="549.29" y="104.00" xlink:href="#hd"/>
<path d="M545.79 104.00v20.40" class="stroke"/>
<use x="567.39" y="107.00" xlink:href="#hd"/>
<path d="M563.89 107.00v19.60" class="stroke"/>
<use x="587.39" y="104.00" xlink:href="#hd"/>
<path d="M583.89 104.00v21.00" class="stroke"/>
<use x="615.59" y="110.00" xlink:href="#hd"/>
<path d="M612.09 110.00v21.00" class="stroke"/>
<use x="648.19" y="107.00" xlink:href="#hd"/>
<path d="M644.69 107.00v21.00" class="stroke"/>
<use x="676.19" y="119.00" xlink:href="#hd"/>
<path d="M679.69 119.00v-21.00" class="stroke"/>
<use x="714.39" y="98.00" xlink:href="#hd"/>
<path d="M710.89 98.00v21.00" class="stroke"/>
<use x="742.39" y="101.00" xlink:href="#hd"/>
<path d="M738.89 101.00v21.00" class="stroke"/>
<path class="fill"
	d="M772.69 123.90l18.80 -3.70v-3.20l-18.80 3.70"/>
<use x="776.49" y="104.00" xlink:href="#hd"/>
<path d="M772.99 104.00v18.80" class="stroke"/>
<use x="794.59" y="98.00" xlink:href="#hd"/>
<path d="M791.09 98.00v21.20" class="stroke"/>
<path class="fill"
	d="M810.79 125.30l18.80 2.30v-3.20l-18.80 -2.30"/>
<use x="814.69" y="104.00" xlink:href="#hd"/>
<path d="M811.19 104.00v20.40" class="stroke"/>
<use x="832.79" y="107.00" xlink:href="#hd"/>
<path d="M829.29 107.00v19.60" class="stroke"/>
<use x="852.89" y="110.00" xlink:href="#Hd"/>
<path d="M849.39 110.00v21.00" class="stroke"/>
<defs>
<path id="ubclef" class="fill" d="m-200 -87
	c124 -35 222 -78 254 -236
	43 -228 -167 -246 -192 -103
	59 -80 157 22 92 78
	-62 47 -115 -22 -106 -88
	21 -141 270 -136 274 52
	-1 175 -106 264 -322 297
	m357 -250
	c0 -36 51 -34 51 0
	0 37 -51 36 -51 0
	m-2 -129
	c0 -36 51 -34 51 0
	0 38 -51 37 -51 0"/>
<use id="bclef" transform="translate(0,18) scale(0.045)"
	xlink:href="#ubclef"/>
</defs>
<use x="46.89" y="165.00" xlink:href="#bclef"/>
<g style="font:bold 16px serif"
	transform="translate(65.39,182.50) scale(1.2,1)">
	<text text-anchor="middle">2</text>
	<text y="-12" text-anchor="middle">2</text>
</g>
<use x="107.89" y="174.00" xlink:href="#Hd"/>
<path d="M111.39 174.00v-21.00" class="stroke"/>
<defs>
<path id="hl" class="stroke" d="m-6 0h12"/>
</defs>
<use x="163.99" y="153.00" xlink:href="#hl"/>
<use x="163.99" y="153.00" xlink:href="#Hd"/>
<path d="M160.49 153.00v21.00" class="stroke"/>
<use x="224.69" y="153.00" xlink:href="#hl"/>
<use x="224.69" y="153.00" xlink:href="#hd"/>
<path d="M221.19 153.00v21.00" class="stroke"/>
<use x="262.79" y="153.00" xlink:href="#hl"/>
<use x="262.79" y="153.00" xlink:href="#Hd"/>
<path d="M259.29 153.00v21.00" class="stroke"/>
<use x="328.99" y="156.00" xlink:href="#hd"/>
<path d="M325.49 156.00v21.00" class="stroke"/>
<use x="361.69" y="159.00" xlink:href="#hd"/>
<path d="M358.19 159.00v21.00" class="stroke"/>
<use x="399.79" y="159.00" xlink:href="#hd"/>
<path d="M396.29 159.00v21.00" class="stroke"/>
<path class="fill"
	d="M434.09 178.90l18.80 -3.70v-3.20l-18.80 3.70"/>
<use x="437.99" y="159.00" xlink:href="#hd"/>
<path d="M434.49 159.00v18.80" class="stroke"/>
<use x="456.09" y="153.00" xlink:href="#hl"/>
<use x="456.09" y="153.00" xlink:href="#hd"/>
<path d="M452.59 153.00v21.20" class="stroke"/>
<path class="fill"
	d="M472.29 181.10l18.80 3.70v-3.20l-18.80 -3.70"/>
<use x="476.09" y="159.00" xlink:href="#hd"/>
<path d="M472.59 159.00v21.20" class="stroke"/>
<use x="494.19" y="165.00" xlink:href="#hd"/>
<path d="M490.69 165.00v18.80" class="stroke"/>
<use x="521.19" y="162.00" xlink:href="#hd"/>
<path d="M517.69 162.00v21.00" class="stroke"/>
<use x="549.29" y="162.00" xlink:href="#hd"/>
<path d="M545.79 162.00v21.00" class="stroke"/>
<use x="587.39" y="153.00" xlink:href="#hl"/>
<use x="587.39" y="153.00" xlink:href="#hd"/>
<path d="M583.89 153.00v21.00" class="stroke"/>
<use x="615.59" y="153.00" xlink:href="#hl"/>
<use x="615.59" y="153.00" xlink:href="#hd"/>
<path d="M612.09 153.00v21.00" class="stroke"/>
<use x="648.19" y="153.00" xlink:href="#hl"/>
<use x="648.19" y="153.00" xlink:href="#hd"/>
<path d="M644.69 153.00v21.00" class="stroke"/>
<path class="fill"
	d="M672.39 177.30l18.80 2.30v-3.20l-18.80 -2.30"/>
<use x="676.19" y="156.00" xlink:href="#hd"/>
<path d="M672.69 156.00v20.40" class="stroke"/>
<use x="694.29" y="159.00" xlink:href="#hd"/>
<path d="M690.79 159.00v19.60" class="stroke"/>
<use x="714.39" y="156.00" xlink:href="#Hd"/>
<path d="M710.89 156.00v21.00" class="stroke"/>
<defs>
<path id="hl1" class="stroke" d="m-7 0h14"/>
</defs>
<use x="777.49" y="153.00" xlink:href="#hl1"/>
<defs>
<path id="HD" class="fill" d="m-2.7 -1.4
	c1.5 -2.8 6.9 0 5.3 2.7
	-1.5 2.8 -6.9 0 -5.3 -2.7
	m8.3 1.4
	c0 -1.5 -2.2 -3 -5.6 -3
	-3.4 0 -5.6 1.5 -5.6 3
	0 1.5 2.2 3 5.6 3
	3.4 0 5.6 -1.5 5.6 -3"/>
</defs>
<use x="777.49" y="153.00" xlink:href="#HD"/>
</g>
</svg>
